<svg width="34" height="14" viewBox="0 0 34 14" fill="none" xmlns="http://www.w3.org/2000/svg">
<path d="M0 0H33V14H0V0Z" fill="#F0141E"/>
<path d="M28.7721 3.26332V1.11936H22.9441L21.9847 8.27909L21.0367 1.11936H18.935L19.1699 3.0312C18.9276 2.5412 18.0675 1.11936 16.1737 1.11936C16.1611 1.11852 14.0695 1.11936 14.0695 1.11936L14.0608 11.5552L12.5292 1.11936L9.77628 1.11852L8.19161 11.9312L8.19249 1.11936H5.55735L4.60774 7.19312L3.68266 1.11936H1.04712V12.8746H3.12268V7.20851L4.06693 12.8746H5.17016L6.10108 7.20851V12.8746H10.1021L10.344 11.0665H11.9548L12.1967 12.8746L16.1252 12.8772H16.128V12.8746H16.1329V9.05932L16.614 8.98764L17.6109 12.8772H19.6429L19.6421 12.8746H19.6479L18.3397 8.3169C19.0021 7.81437 19.7509 6.54037 19.5516 5.32104V5.32062C19.5541 5.33644 20.7868 12.8824 20.7868 12.8824L23.2031 12.8747L24.8541 2.22053V12.8747H28.772V10.7608H26.9126V8.06531H28.772V5.91912H26.9126V3.26332H28.7721ZM10.5885 9.20288L11.1588 4.17675L11.7497 9.20288H10.5885ZM16.6206 6.88204C16.4612 6.96065 16.2953 6.99998 16.1329 7.0004V3.21971C16.1354 3.21971 16.1392 3.21929 16.1433 3.21929C16.3052 3.21803 17.5171 3.26927 17.5171 5.08892C17.5171 6.04078 17.105 6.6411 16.6206 6.88204ZM32.9533 10.7588V12.872H29.1307V1.11768H31.1892V10.7588H32.9533Z" fill="white"/>
</svg>
